<?xml version="1.0" encoding="UTF-8" standalone="no"?>
<svg
   xmlns:dc="http://purl.org/dc/elements/1.1/"
   xmlns:cc="http://creativecommons.org/ns#"
   xmlns:rdf="http://www.w3.org/1999/02/22-rdf-syntax-ns#"
   xmlns:svg="http://www.w3.org/2000/svg"
   xmlns="http://www.w3.org/2000/svg"
   xmlns:sodipodi="http://sodipodi.sourceforge.net/DTD/sodipodi-0.dtd"
   xmlns:inkscape="http://www.inkscape.org/namespaces/inkscape"
   id="Layer_2"
   viewBox="0 0 60.472441 60.472442"
   version="1.1"
   sodipodi:docname="Logo11_white_32.svg"
   width="16mm"
   height="16mm"
   inkscape:version="1.0.2 (e86c8708, 2021-01-15)">
  <metadata
     id="metadata1047">
    <rdf:RDF>
      <cc:Work
         rdf:about="">
        <dc:format>image/svg+xml</dc:format>
        <dc:type
           rdf:resource="http://purl.org/dc/dcmitype/StillImage" />
        <dc:title></dc:title>
      </cc:Work>
    </rdf:RDF>
  </metadata>
  <defs
     id="defs1045" />
  <sodipodi:namedview
     pagecolor="#ffffff"
     bordercolor="#666666"
     borderopacity="1"
     objecttolerance="10"
     gridtolerance="10"
     guidetolerance="10"
     inkscape:pageopacity="0"
     inkscape:pageshadow="2"
     inkscape:window-width="1900"
     inkscape:window-height="840"
     id="namedview1043"
     showgrid="false"
     units="mm"
     inkscape:document-units="mm"
     inkscape:zoom="10.451042"
     inkscape:cx="30.618957"
     inkscape:cy="25.069271"
     inkscape:window-x="134"
     inkscape:window-y="96"
     inkscape:window-maximized="0"
     inkscape:current-layer="Layer_2" />
  <g
     id="Layer_2-2"
     transform="scale(3.7808232)">
    <path
       d="M 15.44,7.18 V 9.62 L 15.19,9.37 C 14.56,12.76 11.57,15.32 8,15.32 4.43,15.32 1.45,12.76 0.82,9.37 L 0.57,9.62 V 7.18 H 0.73 C 1.13,3.53 4.25,0.68 8,0.68 c 3.75,0 6.88,2.85 7.28,6.5 z"
       style="fill:#ffffff"
       id="path1023" />
    <path
       d="m 15.28,7.18 c 0.01,0.06 0.02,0.12 0.02,0.18 0.01,0.13 0.02,0.25 0.02,0.38 0.01,0.09 0.01,0.17 0.01,0.26 0,0.47 -0.04,0.93 -0.14,1.37 l 0.25,0.25 V 7.18 Z M 0.69,7.82 C 0.69,7.66 0.7,7.5 0.72,7.34 0.71,7.29 0.72,7.23 0.73,7.18 H 0.57 V 9.62 L 0.82,9.37 C 0.72,8.93 0.68,8.47 0.68,8 c 0,-0.06 0,-0.12 0.01,-0.18 z"
       id="path1025" />
    <path
       d="M 8,0 C 3.59,0 0,3.59 0,8 c 0,4.41 3.59,8 8,8 4.41,0 8,-3.59 8,-8 C 16,3.59 12.42,0 8,0 Z M 8,15.32 C 4.44,15.32 1.45,12.76 0.82,9.37 L 0.57,9.62 V 7.18 H 0.73 C 1.13,3.53 4.25,0.68 8,0.68 c 3.75,0 6.88,2.85 7.28,6.5 h 0.16 V 9.62 L 15.19,9.37 C 14.56,12.76 11.57,15.32 8,15.32 Z"
       id="path1027" />
    <path
       d="m 0.69,7.33 c 2.37,1.14 4.7,2.06 7.31,2.04 2.13,0.04 4.28,-0.68 6.27,-1.58 0.26,-0.12 0.8,-0.35 1.06,-0.46 l 0.07,0.1 c 0,0 0,0 0,0 0,0.04 -0.03,0.1 -0.04,0.14 -0.92,3.17 -4.1,5.32 -7.38,5.28 C 4.76,12.88 1.54,10.85 0.65,7.72 0.63,7.64 0.6,7.51 0.58,7.43 c 0,0 -0.01,-0.02 0.01,0 L 0.67,7.32 v 0 z"
       id="path1029" />
    <polygon
       points="0.57,7.18 3.01,7.18 0.57,9.62 "
       id="polygon1031" />
    <polygon
       points="13,7.18 15.44,7.18 15.44,9.62 "
       id="polygon1033" />
    <rect
       x="6.6599998"
       y="3.8800001"
       width="2.7"
       height="0.66000003"
       rx="0.23999999"
       ry="0.23999999"
       style="fill:none"
       id="rect1035" />
    <rect
       x="6.9499998"
       y="5.4899998"
       width="2.0999999"
       height="0.66000003"
       rx="0.22"
       ry="0.22"
       style="fill:none"
       id="rect1037" />
    <path
       d="m 5.12,2.51 v 5.77 h 5.77 V 2.51 Z M 6.95,5.93 V 5.71 c 0,-0.12 0.1,-0.22 0.22,-0.22 h 1.67 c 0.12,0 0.22,0.1 0.22,0.22 v 0.22 c 0,0.12 -0.1,0.22 -0.22,0.22 H 7.17 C 7.05,6.15 6.95,6.05 6.95,5.93 Z M 9.35,4.3 c 0,0.13 -0.11,0.24 -0.24,0.24 H 6.9 C 6.77,4.54 6.66,4.43 6.66,4.3 V 4.13 C 6.66,3.99 6.77,3.88 6.9,3.88 h 2.21 c 0.13,0 0.24,0.11 0.24,0.25 z"
       id="path1039" />
  </g>
</svg>
